/* XPM */
static char * ACETABULAR_ICON_xpm[] = {
"15 15 148 2",
"  	c None",
". 	c #FFFFFF",
"+ 	c #FEFEFE",
"@ 	c #F6F1E8",
"# 	c #F6F2EB",
"$ 	c #F6EFE2",
"% 	c #F6EDE0",
"& 	c #F6F1E7",
"* 	c #F8F2E7",
"= 	c #E2CEAB",
"- 	c #D9C6A4",
"; 	c #BDA67D",
"> 	c #BDAC8C",
", 	c #BC9D67",
"' 	c #BA9658",
") 	c #BDA477",
"! 	c #BC8016",
"~ 	c #D5B57F",
"{ 	c #E4D7C2",
"] 	c #BDA67E",
"^ 	c #BDB9B0",
"/ 	c #BDBDBB",
"( 	c #BDBCB9",
"_ 	c #BDBBB7",
": 	c #BDB7AE",
"< 	c #A86600",
"[ 	c #593800",
"} 	c #A46D0D",
"| 	c #EFDFC3",
"1 	c #BC7C0F",
"2 	c #BE8B33",
"3 	c #BE9651",
"4 	c #BDA884",
"5 	c #BDB4A2",
"6 	c #BDB3A3",
"7 	c #BDB29D",
"8 	c #BDAF96",
"9 	c #BEA26E",
"0 	c #C07F0F",
"a 	c #9C6301",
"b 	c #96640D",
"c 	c #BC7A09",
"d 	c #B87706",
"e 	c #9F6705",
"f 	c #9F6501",
"g 	c #B57300",
"h 	c #C18926",
"i 	c #BFA16B",
"j 	c #BDAA89",
"k 	c #BDA06D",
"l 	c #BE8B32",
"m 	c #5F3D00",
"n 	c #BAA47F",
"o 	c #F0E2CA",
"p 	c #A56D0C",
"q 	c #3B2500",
"r 	c #352100",
"s 	c #412900",
"t 	c #7A4D00",
"u 	c #A56B07",
"v 	c #C18A29",
"w 	c #BD9B5F",
"x 	c #BD9A5C",
"y 	c #AC730F",
"z 	c #976000",
"A 	c #764B00",
"B 	c #643F01",
"C 	c #F1ECE4",
"D 	c #A56F10",
"E 	c #3C2600",
"F 	c #3E2700",
"G 	c #422A00",
"H 	c #2E1D00",
"I 	c #402900",
"J 	c #8E5900",
"K 	c #BA7909",
"L 	c #B98221",
"M 	c #986000",
"N 	c #9D6300",
"O 	c #B57200",
"P 	c #744A00",
"Q 	c #EDE8E0",
"R 	c #DFC089",
"S 	c #714902",
"T 	c #492E00",
"U 	c #623F00",
"V 	c #654000",
"W 	c #4D3100",
"X 	c #382400",
"Y 	c #815200",
"Z 	c #9C6200",
"` 	c #7C4F00",
" .	c #8B5800",
"..	c #A66900",
"+.	c #6B4400",
"@.	c #EAE6E0",
"#.	c #BF8117",
"$.	c #724701",
"%.	c #664100",
"&.	c #8E5A00",
"*.	c #925D00",
"=.	c #5D3B00",
"-.	c #704800",
";.	c #784C00",
">.	c #6C4500",
",.	c #7E4F00",
"'.	c #E8E5E0",
").	c #BF851F",
"!.	c #835300",
"~.	c #905B00",
"{.	c #AB6E00",
"].	c #9A6200",
"^.	c #2D1D00",
"/.	c #774B00",
"(.	c #643F00",
"_.	c #543500",
":.	c #C39137",
"<.	c #8B5901",
"[.	c #965F00",
"}.	c #A06500",
"|.	c #7A4E00",
"1.	c #3F2800",
"2.	c #513400",
"3.	c #855500",
"4.	c #533400",
"5.	c #553600",
"6.	c #EBE6DE",
"7.	c #BE7E0E",
"8.	c #8A5800",
"9.	c #4F3200",
"0.	c #945E00",
"a.	c #4A2F00",
"b.	c #96886E",
"c.	c #FCF8F1",
"d.	c #986100",
"e.	c #573800",
"f.	c #3B2600",
"g.	c #593900",
"h.	c #BBAC91",
"i.	c #F2E3C8",
"j.	c #D4B47E",
"k.	c #BDA06E",
"l.	c #AB6D02",
"m.	c #AA6C00",
"n.	c #CEBA99",
"o.	c #FFFEFE",
"p.	c #F6EDDE",
"q.	c #F5ECDE",
". . . + @ # $ % & * . . . . . ",
". . = - ; > , ' ) ! ~ . + . . ",
". { ] ^ / / ( _ : < [ } . + . ",
"| 1 2 3 4 5 6 7 8 9 0 a b . . ",
"c d e f g h i j ) k l a m n . ",
"o p q r s t u v w x y z A B C ",
"* D E F G H I J K L M N O P Q ",
". R S T U V W X Y Z `  ...+.@.",
". . #.$.%.&.*.=.H -.;.>.,.[ '.",
". + . ).!.~.{.].[ ^./.+.(._.@.",
". . + . :.<.[.}.|.1.2.3.4.5.6.",
". . . . . 7.8.B 9.1.E 0.a.b.+ ",
". . . . + . c.d.e.f._.}.g.h.. ",
". . . . . . . i.j.k.l.m.n.. . ",
". . . . . . . . . o.p.q.. . . "};
