/* XPM */
static char * FEMORAL_ICON_xpm[] = {
"15 15 61 1",
" 	c None",
".	c #FFFFFF",
"+	c #F3F2EF",
"@	c #F3F3F3",
"#	c #FEFEFF",
"$	c #DAD2C3",
"%	c #A6A39E",
"&	c #A6A4A0",
"*	c #CABCA5",
"=	c #AF8946",
"-	c #AC7B26",
";	c #A87E35",
">	c #A36D0F",
",	c #A8731B",
"'	c #352100",
")	c #784B00",
"!	c #75500E",
"~	c #FEFEFE",
"{	c #BD9449",
"]	c #5C3B03",
"^	c #999288",
"/	c #908777",
"(	c #BF9752",
"_	c #B38023",
":	c #966308",
"<	c #D8D0C3",
"[	c #FFFEFE",
"}	c #AB946A",
"|	c #5B3A00",
"1	c #4F3200",
"2	c #442B01",
"3	c #E7E6E4",
"4	c #F3EBDE",
"5	c #A97F35",
"6	c #A47F40",
"7	c #5E3B00",
"8	c #9A9388",
"9	c #F4ECE0",
"0	c #A6854B",
"a	c #A6987E",
"b	c #9E6709",
"c	c #A5977F",
"d	c #F5EEE4",
"e	c #A6854C",
"f	c #A88E61",
"g	c #7B4B01",
"h	c #B0A591",
"i	c #D5D3CF",
"j	c #AA843F",
"k	c #705121",
"l	c #D2BD98",
"m	c #A86F0A",
"n	c #5F471F",
"o	c #D3BE98",
"p	c #996306",
"q	c #6E511F",
"r	c #D5C2A1",
"s	c #774E08",
"t	c #60481F",
"u	c #D5C09B",
"v	c #7C5207",
".........+@#...",
"........$%&*...",
"........=-;>...",
"........,')!...",
"....~..{]^/.~..",
".....(_:<......",
"...[}|123......",
"...45678.......",
"...90abc.......",
"...defgh.......",
"....ijk........",
"....lmn........",
"....opq........",
"....rst........",
"....uvt........"};
