/* XPM */
static char * FRAME_ICON32x32_xpm[] = {
"32 32 74 1",
" 	c None",
".	c #FFFFFF",
"+	c #FEFEFE",
"@	c #DCDCDC",
"#	c #B1B1B1",
"$	c #A5A5A5",
"%	c #B6B6B6",
"&	c #E4E4E4",
"*	c #ECECEC",
"=	c #898989",
"-	c #C2C2C2",
";	c #EEEEEE",
">	c #FBFBFB",
",	c #E5E5E5",
"'	c #B2B2B2",
")	c #989898",
"!	c #F3F3F3",
"~	c #EDEDED",
"{	c #8A8A8A",
"]	c #F6F6F6",
"^	c #EFEFEF",
"/	c #858585",
"(	c #8E8E8E",
"_	c #F7F7F7",
":	c #E7E7E7",
"<	c #A8A8A8",
"[	c #B3B3B3",
"}	c #959595",
"|	c #F8F8F8",
"1	c #C6C6C6",
"2	c #DDDDDD",
"3	c #C9C9C9",
"4	c #BCBCBC",
"5	c #E1E1E1",
"6	c #D2D2D2",
"7	c #D8D8D8",
"8	c #9C9C9C",
"9	c #919191",
"0	c #E8E8E8",
"a	c #B9B9B9",
"b	c #B7B7B7",
"c	c #E0E0E0",
"d	c #D7D7D7",
"e	c #F4F4F4",
"f	c #C8C8C8",
"g	c #9B9B9B",
"h	c #ACACAC",
"i	c #E2E2E2",
"j	c #E9E9E9",
"k	c #BABABA",
"l	c #8B8B8B",
"m	c #CECECE",
"n	c #F1F1F1",
"o	c #8F8F8F",
"p	c #F2F2F2",
"q	c #656565",
"r	c #929292",
"s	c #AFAFAF",
"t	c #CBCBCB",
"u	c #D9D9D9",
"v	c #CDCDCD",
"w	c #636363",
"x	c #868686",
"y	c #A1A1A1",
"z	c #C3C3C3",
"A	c #C0C0C0",
"B	c #A9A9A9",
"C	c #FCFCFC",
"D	c #BDBDBD",
"E	c #A6A6A6",
"F	c #A2A2A2",
"G	c #8C8C8C",
"H	c #D4D4D4",
"I	c #FAFAFA",
"................................",
"........+@#$%&..................",
".......*=-;>,')!................",
"......~{].....^/]...............",
".....+(_.......:<...............",
".....,[.........}|..............",
".....12.........3@..............",
".....45.........67..............",
".....45.........67..............",
".....45.........67..............",
".....45.........67..............",
".....45.........67..............",
".....48#########97..0a#bc.......",
".....4deeeeeeeeef7!ghiejkl;.....",
".....45.........6m=*.....nop....",
".....45.........6q,.......n(....",
".....45.........6r.........s0...",
".....45.........6t.........ut...",
".....45.........67.........54...",
".....45.........6a.........v7...",
".....45.........6w+........x|...",
".....45.........6yb.......mz....",
".....45.........67AB]...CDE+....",
".....45.........67.cr84FGH......",
".....]I.........67...I*_........",
"................67..............",
"................67..............",
"................67..............",
"................67..............",
"................67..............",
"................67..............",
"................67.............."};
