/* XPM */
static char * FRAME_ICON64x64_xpm[] = {
"64 64 82 1",
" 	c None",
".	c #FFFFFF",
"+	c #E8E8E8",
"@	c #E2E2E2",
"#	c #F0F0F0",
"$	c #FDFDFD",
"%	c #C5C5C5",
"&	c #000000",
"*	c #DCDCDC",
"=	c #FEFEFE",
"-	c #D1D1D1",
";	c #A3A3A3",
">	c #D4D4D4",
",	c #DADADA",
"'	c #C3C3C3",
")	c #8A8A8A",
"!	c #767676",
"~	c #EBEBEB",
"{	c #A9A9A9",
"]	c #FCFCFC",
"^	c #B5B5B5",
"/	c #CECECE",
"(	c #616161",
"_	c #AAAAAA",
":	c #F7F7F7",
"<	c #696969",
"[	c #B1B1B1",
"}	c #ABABAB",
"|	c #CBCBCB",
"1	c #969696",
"2	c #E0E0E0",
"3	c #E5E5E5",
"4	c #454545",
"5	c #DEDEDE",
"6	c #BEBEBE",
"7	c #B0B0B0",
"8	c #C2C2C2",
"9	c #9A9A9A",
"0	c #434343",
"a	c #CACACA",
"b	c #606060",
"c	c #888888",
"d	c #A2A2A2",
"e	c #F8F8F8",
"f	c #F5F5F5",
"g	c #4A4A4A",
"h	c #3C3C3C",
"i	c #DDDDDD",
"j	c #989898",
"k	c #E6E6E6",
"l	c #D3D3D3",
"m	c #C4C4C4",
"n	c #F6F6F6",
"o	c #383838",
"p	c #F2F2F2",
"q	c #868686",
"r	c #666666",
"s	c #ECECEC",
"t	c #101010",
"u	c #EDEDED",
"v	c #C6C6C6",
"w	c #292929",
"x	c #747474",
"y	c #9B9B9B",
"z	c #B2B2B2",
"A	c #4E4E4E",
"B	c #F3F3F3",
"C	c #B8B8B8",
"D	c #565656",
"E	c #8F8F8F",
"F	c #2E2E2E",
"G	c #585858",
"H	c #A5A5A5",
"I	c #D0D0D0",
"J	c #5B5B5B",
"K	c #A6A6A6",
"L	c #EAEAEA",
"M	c #F4F4F4",
"N	c #9D9D9D",
"O	c #A4A4A4",
"P	c #515151",
"Q	c #949494",
"................................................................",
".....................+@@#.......................................",
".................$%&&&&&&&&*=...................................",
"................-&&&;>,,')&&!~..................................",
"..............${&&,=......]^&&/.................................",
"..............(&_...........:<&[................................",
".............}&|..............1&2...............................",
"............3&{...............:4&...............................",
"...........$&&]................5&{..............................",
"...........*&6..................(&].............................",
"...........7&...................>&5.............................",
"...........&&....................&8.............................",
"...........&&....................&&.............................",
"...........&&....................&&.............................",
"...........&&....................&&.............................",
"...........&&....................&&.............................",
"...........&&....................&&.............................",
"...........&&....................&&.............................",
"...........&&....................&&.............................",
"...........&&....................&&.............................",
"...........&&....................&&.............................",
"...........&&....................&&.............................",
"...........&&....................&&.............................",
"...........&&....................&&.............................",
"...........&&&&&&&&&&&&&&&&&&&&&&&&......*9(&&09a=..............",
"...........&&&&&&&&&&&&&&&&&&&&&&&&...=a&&&bcc!&&&de............",
"...........&&....................&&..fg&h>:....=ij&&k...........",
"...........&&....................&&.@&&l..........k&&m..........",
"...........&&....................&&n&op............:q&@.........",
"...........&&....................&&r&s...............&&e........",
"...........&&....................&&&-................s&c........",
"...........&&....................&&t$.................9&f.......",
"...........&&....................&&%..................u&v.......",
"...........&&....................&&n...................wx.......",
"...........&&....................&&....................y&.......",
"...........&&....................&&....................z&.......",
"...........&&....................&&....................z&.......",
"...........&&....................&&....................d&.......",
"...........&&....................&&]...................Ax.......",
"...........&&....................&&|..................B&C.......",
"...........&&....................&&D=.................y&B.......",
"...........&&....................&&&i................B&E........",
"...........&&....................&&F&s...............D&B........",
"...........&&....................&&u&G#.............H&>.........",
"...........&&....................&&.I&&k..........BJ&K..........",
"...........&&....................&&..u&&xL......MN&&>...........",
"...........&&....................&&...${&&&1[[OP&&)p............",
"...........&&....................&&.....n|Q&&&&x^p..............",
".................................&&.............................",
".................................&&.............................",
".................................&&.............................",
".................................&&.............................",
".................................&&.............................",
".................................&&.............................",
".................................&&.............................",
".................................&&.............................",
".................................&&.............................",
".................................&&.............................",
".................................&&.............................",
".................................&&.............................",
".................................&&.............................",
".................................&&.............................",
".................................&&.............................",
".................................&&............................."};
