/* XPM */
static char * FRAME_ICON16x16_xpm[] = {
"16 16 16 1",
" 	c None",
".	c #FFFFFF",
"+	c #FAFAFA",
"@	c #000000",
"#	c #E7E7E7",
"$	c #FEFEFE",
"%	c #EAEAEA",
"&	c #ECECEC",
"*	c #FBFBFB",
"=	c #D4D4D4",
"-	c #F8F8F8",
";	c #D5D5D5",
">	c #F0F0F0",
",	c #D8D8D8",
"'	c #F1F1F1",
")	c #FDFDFD",
"................",
"...+@@@#........",
"...@$..@%.......",
"..@#....@.......",
"..@+....@.......",
"..@+....@.......",
"..@@@@@@@.@@@...",
"..@+....@@&*=@..",
"..@+....@-...;@.",
"..@+....@....>@.",
"..@+....@....,@.",
"..@+....@@..'@..",
"..>)....@-@@@...",
"........@.......",
"........@.......",
"........@......."};
