/* XPM */
static char * MENU_OP_CREATE_PROSTHESIS_xpm[] = {
"11 11 33 1",
" 	c None",
".	c #82899A",
"+	c #A2A8BA",
"@	c #616B80",
"#	c #E0E5F5",
"$	c #E8EDFC",
"%	c #D7E0F8",
"&	c #60687A",
"*	c #5A74A3",
"=	c #919BB2",
"-	c #9AA8C8",
";	c #738AB2",
">	c #7A9DDC",
",	c #C5CAD7",
"'	c #E2E8FA",
")	c #61697D",
"!	c #80838B",
"~	c #839DCA",
"{	c #697EA2",
"]	c #597098",
"^	c #5D6881",
"/	c #707581",
"(	c #9298A7",
"_	c #9EA5B9",
":	c #39465B",
"<	c #AEB2BE",
"[	c #AAAEB9",
"}	c #DBDFEE",
"|	c #ABAFBB",
"1	c #A6AAB5",
"2	c #B9BDCA",
"3	c #6C707A",
"4	c #787D89",
"      .+@  ",
"      #$%& ",
"     *=$$- ",
"     ;>,') ",
"   !~{]^/  ",
"  ($_:     ",
"  <$[      ",
"  [}       ",
"  |1       ",
"  23       ",
"  4        "};
