/* XPM */
static char * MENU_OP_MANAGE_PRODUCER_xpm[] = {
"11 11 3 1",
" 	c None",
".	c #000000",
"+	c #4D4299",
"  .....    ",
"  .++++.   ",
"  .+++++.  ",
"  .++..++. ",
"  .++..++. ",
"  .+++++.  ",
"  .++++.   ",
"  .++..    ",
"  .++.     ",
"  .++.     ",
"  ....     "};
