/* XPM */
static char * MENU_OP_CREATE_PROSTHESIS_xpm[] = {
"11 11 3 1",
" 	c None",
".	c #000000",
"+	c #A2A2A2",
"      ...  ",
"     .+++. ",
"      .++. ",
"   .. ..+. ",
"  .++.  .  ",
"  .+++.    ",
"  .+..     ",
"  .+.      ",
"  .+.      ",
"  .+.      ",
"  ...      "};
