/* XPM */
static char * MENU_OP_MANAGE_PRODUCER_xpm[] = {
"11 11 4 1",
" 	c None",
".	c #504E4D",
"+	c #9B9CF5",
"@	c #484BF9",
"           ",
"   .....   ",
"  ..+++..  ",
"  .@...@.  ",
"  .@@@@@.  ",
"  .@@@@@.  ",
"  .@@@@@.  ",
"  .@@@@@.  ",
"   .@@@.   ",
"    ...    ",
"           "};
