/* XPM */
static char * OP_CREATE_PROSTHESIS_xpm[] = {
"20 20 69 1",
" 	c None",
".	c #000000",
"+	c #848895",
"@	c #C8CEDC",
"#	c #C7D0E6",
"$	c #A7B4D1",
"%	c #4E5668",
"&	c #767A86",
"*	c #E8EDFC",
"=	c #E5EBFC",
"-	c #C8D5F5",
";	c #4B556B",
">	c #090C0F",
",	c #D4DAE9",
"'	c #E0E7FC",
")	c #A2AFCD",
"!	c #5C80BD",
"~	c #727783",
"{	c #B3C1E1",
"]	c #4D5E7B",
"^	c #92B7F9",
"/	c #5879B2",
"(	c #B0B6C5",
"_	c #B0BDDC",
":	c #3A4860",
"<	c #A3C1F7",
"[	c #82ACF4",
"}	c #465675",
"|	c #DAE0F1",
"1	c #78839D",
"2	c #223049",
"3	c #7288AF",
"4	c #6D84AB",
"5	c #677CA1",
"6	c #90B1EB",
"7	c #5C7FBB",
"8	c #7C818D",
"9	c #E2E7F7",
"0	c #99A0B2",
"a	c #777C8A",
"b	c #7A8091",
"c	c #819AC7",
"d	c #A4C2F7",
"e	c #97B3E5",
"f	c #09111D",
"g	c #172134",
"h	c #DEE3F2",
"i	c #E3E8F7",
"j	c #767D8E",
"k	c #849DC9",
"l	c #546787",
"m	c #7C808B",
"n	c #E3E9F9",
"o	c #757C8D",
"p	c #A3A9B8",
"q	c #626875",
"r	c #AAAEB9",
"s	c #A7ABB8",
"t	c #E0E6F5",
"u	c #373E4C",
"v	c #B0B4C1",
"w	c #5F636F",
"x	c #A5ABB9",
"y	c #CFD5E6",
"z	c #9AA3B7",
"A	c #9CA1AE",
"B	c #939BAF",
"C	c #565A66",
"D	c #080A0E",
"            ..      ",
"          .+@#$%    ",
"          &***=-;   ",
"          >,***')   ",
"         .!~****{.  ",
"         ]^/(***_.  ",
"         :<[}|*=1   ",
"      .234567890.   ",
"     abcdef....     ",
"    ghijkl          ",
"    m**no.          ",
"    p**9q           ",
"    r**s            ",
"    r*tu            ",
"    r*v             ",
"    r*w             ",
"    xy.             ",
"    zA              ",
"    BC              ",
"    D               "};
