/* XPM */
static char * OP_EXPORT_PROSTHESIS_xpm[] = {
"20 20 4 1",
" 	c None",
".	c #000000",
"+	c #646464",
"@	c #797979",
" .................. ",
" .       +@@@+    . ",
" .      +@@@@@+   . ",
" .      +@@@@@@+  . ",
" .       +@@@@@+  . ",
" .  +++ +@+@@@@+  . ",
" . +@@@+@@@+@@+   . ",
" . +@@@@+@+ ++    . ",
" . +@@@@@+        . ",
" . +@@@@+         . ",
" . +@@++          . ",
" . +@@+      .    . ",
" . +@@+      ..   . ",
" . +@@+   ....@.  . ",
" . +@+    .@@@@@. . ",
" . +@+    ....@.  . ",
" . +@+       ..   . ",
" . +@+       .    . ",
" . +@+            . ",
" .................. "};
