/* XPM */
static char * OP_MANAGE_PRODUCER_xpm[] = {
"20 20 3 1",
" 	c None",
".	c #000000",
"+	c #4D4299",
"    ...........     ",
"    .++++++++++.    ",
"    .+++++++++++.   ",
"    .++++....++++.  ",
"    .++++.   .++++. ",
"    .++++.   .++++. ",
"    .++++.   .++++. ",
"    .++++....++++.  ",
"    .+++++++++++.   ",
"    .++++++++++.    ",
"    .++++......     ",
"    .++++.          ",
"    .++++.          ",
"    .++++.          ",
"    .++++.          ",
"    .++++.          ",
"    .++++.          ",
"    .++++.          ",
"    .++++.          ",
"    ......          "};
