/* XPM */
static char * VIEW_IMAGE_ICON_xpm[] = {
"20 20 3 1",
" 	c None",
".	c #020202",
"+	c #B6B6B6",
"                    ",
"                    ",
"  ................  ",
"  ................  ",
"  .++++++++++++++.  ",
"  .++++++++++++++.  ",
"  .++++++++++++++.  ",
"  .++++++++++++++.  ",
"  .++++++++++++++.  ",
"  .++++++++++++++.  ",
"  .++++++++++++++.  ",
"  .++++++++++++++.  ",
"  .++++++++++++++.  ",
"  .++++++++++++++.  ",
"  .++++++++++++++.  ",
"  .++++++++++++++.  ",
"  .++++++++++++++.  ",
"  ................  ",
"                    ",
"                    "};
